<?xml version="1.0" encoding="UTF-8"?>
<svg width="443" height="563" version="1.1" viewBox="0 0 443 563" xmlns="http://www.w3.org/2000/svg">
 <path d="m140.27 4.9902c-3.4254 3.8779-0.55533 11.995-1.5 17.5 0.0833 32.289-0.16663 64.601 0.125 96.875 24.359 1.4583 49.656 0.20836 74.375 0.625 13.327 0.3397 28.009-0.67522 40.5 0.5 2.1258 8.1916-8.8266 3.1128-13.5 4.5-35.289 0.0833-70.601-0.16664-105.88 0.125-1.3166 10.994-0.4613 22.904-0.5 34.25 7.8901-1.1767 3.987 7.9071 4.875 13.125 0.0836 65.622-0.1673 131.27 0.125 196.88 24.359 1.4583 49.656 0.20836 74.375 0.625 45.039 0.2528 91.084-0.50082 135.5 0.375 0.091 61.327-0.17033 122.66 0.125 184 24.359 1.4583 49.656 0.20836 74.375 0.625 4.7034-1.4853 15.547 3.4636 15.5-3.5-2e-3 -82.194-2e-3 -164.31 0-246.5 5.1334 3.3509 7.4923-5.7919 2.5-5-5.6299-0.29168-0.99354-10.385-2.5-14.5-0.088-93.257 0.16972-186.6-0.125-279.87-24.359-1.4583-49.656-0.20836-74.375-0.625h-224zm78.293 65.449c0.10733 0.21787 0.10733 0.21787 0 0zm-74.762 0.58398-0.0312 0.4668zm-123.53 13.967c-3.9285 2.6003 1.941 12.401-6.375 10.625 2.9651 9.096-11.649-0.0679-10.125 7.875v241.5c-4.9628-1.816-3.5857 7.0657 0 5.5 0.39264 6.3922-0.78637 13.335 0.625 19.375 41.228 0.21643 82.522 0.20552 123.75 0 1.561-19.324 0.1357-39.681 0.625-59.375-0.0858-69.955 0.16998-139.93-0.125-209.88-11.047-1.935-23.75 0.70183-34.75-1.25 0.99982-8.4164-10.599-2.1895-15-5-1.2826-10.271-4.6717 0.81999-8.625 0.625-4.2622-0.67541-7.3472 0.30202-7.1446 4.8809-4.072-1.2509-14.097 3.2172-14.355-2.3809-4.867-2.0722-4.604-7.6911-6.5-12.5-4.5102 1.1651-4.3641 7.6824-12 5-8.7932 3.2383-3.9453-5.5852-9.9999-5zm30 5c-6.9639 7.538 10.211 4.0293 1 0zm-15.68 14.93c0.90482 0.10566 0.90482 0.10566 0 0zm110 0c0.90482 0.10566 0.90482 0.10566 0 0zm-115 5c0.90482 0.10566 0.90482 0.10566 0 0zm-10 5c0.90482 0.10566 0.90482 0.10566 0 0zm80 10c0.90482 0.10566 0.90482 0.10566 0 0zm39.211 26.104-0.0312 0.46679zm14.762 9.416c0.10732 0.21785 0.10732 0.21785 0 0zm80 0c0.10732 0.21785 0.10732 0.21785 0 0zm-74.762 0.58399-0.0312 0.46679zm80 0-0.0312 0.46679zm24.762 9.416c0.10723 0.21783 0.10723 0.21783 0 0zm40 0c0.10723 0.21783 0.10723 0.21783 0 0zm50 0c0.10723 0.21783 0.10723 0.21783 0 0zm-44.762 0.58399-0.0312 0.46679zm50 0-0.0312 0.46679zm-100.24 9.416c0.10723 0.21783 0.10723 0.21783 0 0zm-58.973 4.4805c0.90482 0.10566 0.90482 0.10566 0 0zm-5 5c0.90482 0.10566 0.90482 0.10566 0 0zm5 0c0.90482 0.10566 0.90482 0.10566 0 0zm-16.027 0.51953c0.10732 0.21785 0.10732 0.21785 0 0zm10 0c0.10732 0.21785 0.10732 0.21785 0 0zm5 0c0.10732 0.21785 0.10732 0.21785 0 0zm10.238 0.58399-0.0312 0.46679zm-49.211 3.8965c0.90482 0.10566 0.90482 0.10566 0 0zm50 0c0.90482 0.10566 0.90482 0.10566 0 0zm-10.789 1.1035-0.0312 0.46679zm-30.238 4.416c0.10732 0.21785 0.10732 0.21785 0 0zm30 0c0.10732 0.21785 0.10732 0.21785 0 0zm-24.762 0.58399-0.0312 0.46679zm35 0-0.0312 0.46679zm-54.211 3.8965c0.90482 0.10566 0.90482 0.10566 0 0zm55 0c0.90482 0.10566 0.90482 0.10566 0 0zm15 0c0.90482 0.10566 0.90482 0.10566 0 0zm-76.027 0.51953c0.10732 0.21785 0.10732 0.21785 0 0zm60 0c0.10732 0.21785 0.10732 0.21785 0 0zm0 5c0.10732 0.21785 0.10732 0.21785 0 0zm-9.7617 0.58399-0.0312 0.46679zm25 0-0.0312 0.46679zm-74.211 3.8965c0.90482 0.10566 0.90482 0.10566 0 0zm-0.78906 6.1035-0.0312 0.46679zm-4.2109 3.8965c0.90482 0.10566 0.90482 0.10566 0 0zm80 0c0.90482 0.10566 0.90482 0.10566 0 0zm-45 5c0.90482 0.10566 0.90482 0.10566 0 0zm3.9727 0.51953c0.10732 0.21785 0.10732 0.21785 0 0zm-39.762 0.58399-0.0312 0.46679zm80 0-0.0312 0.46679zm-34.211 3.8965c0.90482 0.10566 0.90482 0.10566 0 0zm85 0c0.90482 0.10566 0.90482 0.10566 0 0zm65 0c0.90482 0.10566 0.90482 0.10566 0 0zm13.973 0.51953c0.10723 0.21783 0.10723 0.21783 0 0zm-34.762 0.58399-0.0312 0.46679zm-55.238 4.416c0.10723 0.21783 0.10723 0.21783 0 0zm-119.76 0.58399-0.0312 0.46679zm125 0-0.0312 0.46679zm0 5-0.0312 0.46679zm-119.21 23.896c0.90482 0.10566 0.90482 0.10566 0 0zm98.973 10.52c0.10732 0.21785 0.10732 0.21785 0 0zm-89.762 0.58399-0.0312 0.46679zm195.79 3.8965c0.90482 0.10566 0.90482 0.10566 0 0zm-0.78906 6.1035-0.0312 0.46679zm10 10-0.0312 0.46679zm65.789 3.8965c0.90482 0.10566 0.90482 0.10566 0 0zm-180.79 21.104-0.0312 0.46679zm115.79 8.8965c0.90482 0.10566 0.90482 0.10566 0 0zm69.211 1.1035-0.0312 0.46679zm-79.211 3.8965c0.90482 0.10566 0.90482 0.10566 0 0zm78.973 0.51953c0.10723 0.21783 0.10723 0.21783 0 0zm0 10c0.10723 0.21783 0.10723 0.21783 0 0zm-79.762 20.584-0.0312 0.46679zm0.78906 3.8965c0.90482 0.10566 0.90482 0.10566 0 0zm44.211 1.1035-0.0312 0.46679zm5 0-0.0312 0.46679zm-50 5-0.0312 0.46679zm35 0-0.0312 0.46679zm5 0-0.0312 0.46679zm5 0-0.0312 0.46679zm30.789 8.8965c0.90482 0.10566 0.90482 0.10566 0 0zm-70 5c0.90482 0.10566 0.90482 0.10566 0 0zm5 5c0.90482 0.10566 0.90482 0.10566 0 0zm-10 10c0.90482 0.10566 0.90482 0.10566 0 0zm5 5c0.90482 0.10566 0.90482 0.10566 0 0z" fill="#684934"/>
</svg>
